# AST/ASF file generated using VICON BodyLanguage
# -----------------------------------------------
:version 1.10
:name VICON
:units
  mass 1.0
  length 0.45
  angle deg
:documentation
   .ast/.asf automatically generated from VICON data using
   VICON BodyBuilder and BodyLanguage model FoxedUp or BRILLIANT.MOD
:root
   order TX TY TZ RX RY RZ
   axis XYZ
   position 0 0 0  
   orientation 0 0 0 
:bonedata
  begin
     id 1 
     name lhipjoint
     direction 0.566809 -0.746272 0.349008 
     length 2.40479 
     axis 0 0 0  XYZ
  end
  begin
     id 2 
     name lfemur
     direction 0.34202 -0.939693 0  
     length 7.1578  
     axis 0 0 20  XYZ
    dof rx ry rz
    limits (-160.0 20.0)
           (-70.0 70.0)
           (-60.0 70.0)
  end
  begin
     id 3 
     name ltibia
     direction 0.34202 -0.939693 0   
     length 7.49137   
     axis 0 0 20   XYZ
    dof rx
    limits (-10.0 170.0)
  end
  begin
     id 4 
     name lfoot
     direction 0.0665746 -0.182912 0.980873   
     length 2.36784   
     axis -90 7.62852e-016 20   XYZ
    dof rx rz
    limits (-45.0 90.0)
           (-70.0 20.0)
  end
  begin
     id 5 
     name ltoes
     direction 1.53601e-011 -4.22058e-011 1   
     length 1.18966   
     axis -90 7.62852e-016 20   XYZ
    dof rx
    limits (-90.0 20.0)
  end
  begin
     id 6 
     name rhipjoint
     direction -0.550236 -0.756381 0.353735   
     length 2.37265  
     axis 0 0 0  XYZ 
  end
  begin
     id 7 
     name rfemur
     direction -0.34202 -0.939693 0   
     length 7.43386   
     axis 0 0 -20   XYZ
    dof rx ry rz
    limits (-160.0 20.0)
           (-70.0 70.0)
           (-70.0 60.0)
  end
  begin
     id 8 
     name rtibia
     direction -0.34202 -0.939693 0   
     length 7.50908   
     axis 0 0 -20   XYZ
    dof rx
    limits (-10.0 170.0)
 end
 begin
     id 9 
     name rfoot
     direction -0.0683029 -0.187661 0.979856   
     length 2.41173  
     axis -90 -7.62852e-016 -20   XYZ
    dof rx rz
    limits (-45.0 90.0)
           (-20.0 70.0)
  end
  begin
     id 10 
     name rtoes
     direction -1.53528e-011 -4.21968e-011 1   
     length 1.21082   
     axis -90 -7.62852e-016 -20   XYZ
    dof rx
    limits (-90.0 20.0)
  end
  begin
     id 11 
     name lowerback
     direction 0.013823 0.995423 -0.0945635   
     length 2.04495   
     axis 0 0 0   XYZ
    dof rx ry rz
    limits (-20.0 45.0)
           (-30.0 30.0)
           (-30.0 30.0)
  end
  begin
     id 12 
     name upperback
     direction 0.0276657 0.9994 -0.020853   
     length 2.05008   
     axis 0 0 0   XYZ
    dof rx ry rz
    limits (-20.0 45.0)
           (-30.0 30.0)
           (-30.0 30.0)
  end
  begin
     id 13 
     name thorax
     direction 0.019782 0.999531 0.0233827   
     length 2.06488   
     axis 0 0 0   XYZ
    dof rx ry rz
    limits (-20.0 45.0)
           (-30.0 30.0)
           (-30.0 30.0)
  end
  begin
     id 14 
     name lowerneck
     direction -0.0308541 0.994709 0.0979874   
     length 1.75553   
     axis 0 0 0   XYZ
    dof rx ry rz
    limits (-20.0 45.0)
           (-30.0 30.0)
           (-30.0 30.0)
  end
  begin
     id 15 
     name upperneck
     direction 0.0588398 0.995804 -0.0700903   
     length 1.76878   
     axis 0 0 0   XYZ
    dof rx ry rz
    limits (-20.0 45.0)
           (-30.0 30.0)
           (-30.0 30.0)
  end
  begin
     id 16
     name head
     direction 0.0209966 0.999159 -0.0352225  
     length 1.77193  
     axis 0 0 0   XYZ
    dof rx ry rz
    limits (-20.0 45.0)
           (-30.0 30.0)
           (-30.0 30.0)
  end
  begin
     id 17 
     name lclavicle
     direction 0.938182 0.335073 -0.0868338  
     length 3.58396  
     axis 0 0 0   XYZ
    dof ry rz
    limits (-20.0 10.0)
           (0.0 20.0)
  end
  begin
     id 18 
     name lhumerus
     direction 1 -4.48971e-011 -1.26313e-017   
     length 4.983   
     axis 180 -30 -90   XYZ
    dof rx ry rz
    limits (-60.0 90.0)
           (-90.0 90.0)
           (-90.0 90.0)
  end
  begin
     id 19
     name lradius
     direction 1 -4.48948e-011 -5.89033e-027   
     length 3.48356   
     axis 180 -30 -90   XYZ
    dof rx
    limits (-10.0 170.0)
  end
  begin
     id 20
     name lwrist
     direction 1 -4.48977e-011 -1.48983e-026   
     length 1.74178   
     axis 9.0955e-015 90 90   XYZ
    dof ry
    limits (-180.0 0.0)
 end
  begin
     id 21 
     name lhand
     direction 1 -4.49046e-011 -2.98066e-026   
     length 0.715259   
     axis 1.90115e-014 90 90   XYZ
    dof rx rz
    limits (-90.0 90.0)
           (-45.0 45.0)
  end
  begin
     id 22 
     name lfingers
     direction 1 -4.48907e-011 -5.95731e-026   
     length 0.576661   
     axis 3.80223e-014 90 90   XYZ
    dof rx
    limits (0.0 90.0)
  end
  begin
     id 23
     name lthumb
     direction 0.707107 -6.34963e-011 0.707107   
     length 0.827973   
     axis -90 45 -3.84942e-014   XYZ
    dof rx rz
    limits (-45.0 45.0)
           (-45.0 45.0)
  end
  begin
     id 24 
     name rclavicle
     direction -0.909637 0.398485 -0.11735   
     length 3.44819  
     axis 0 0 0   XYZ 
    dof ry rz
    limits (-10.0 20.0)
           (-20.0 0.0)
  end
  begin
     id 25 
     name rhumerus
     direction -1 -4.48978e-011 -1.09333e-027  
     length 5.2419   
     axis 180 30 90   XYZ
    dof rx ry rz
    limits (-90.0 60.0)
           (-90.0 90.0)
           (-90.0 90.0)
  end
  begin
     id 26 
     name rradius
     direction -1 -4.48953e-011 -7.61841e-027   
     length 3.44417   
     axis 180 30 90   XYZ
    dof rx
    limits (-10.0 170.0)
  end
  begin
     id 27 
     name rwrist
     direction -1 -4.48977e-011 -1.48983e-026   
     length 1.72209   
     axis 9.0955e-015 -90 -90   XYZ
    dof ry
    limits (-180.0 0.0)
  end
  begin
     id 28
     name rhand
     direction -1 -4.49027e-011 -2.98038e-026   
     length 0.622529   
     axis 1.90115e-014 -90 -90   XYZ
    dof rx rz
    limits (-90.0 90.0)
           (-45.0 45.0)
  end
  begin
     id 29
     name rfingers
     direction -1 -4.48838e-011 -5.95531e-026   
     length 0.501899   
     axis 3.80223e-014 -90 -90   XYZ
    dof rx
    limits (0.0 90.0)
  end
  begin
     id 30
     name rthumb
     direction -0.707107 -6.34937e-011 0.707107   
     length 0.720629   
     axis -90 -45 3.84942e-014   XYZ
    dof rx rz
    limits (-45.0 45.0)
           (-45.0 45.0)
  end
:hierarchy
  begin
    root lhipjoint rhipjoint lowerback
    lhipjoint lfemur
    lfemur ltibia
    ltibia lfoot
    lfoot ltoes
    rhipjoint rfemur
    rfemur rtibia
    rtibia rfoot
    rfoot rtoes
    lowerback upperback
    upperback thorax
    thorax lowerneck lclavicle rclavicle
    lowerneck upperneck
    upperneck head
    lclavicle lhumerus
    lhumerus lradius
    lradius lwrist
    lwrist lhand lthumb
    lhand lfingers
    rclavicle rhumerus
    rhumerus rradius
    rradius rwrist
    rwrist rhand rthumb
    rhand rfingers
  end

#!OML:ASF F:\VICON\USERDATA\Patient Classification 1\PLAYGROUND\JustinFriday\JustinFriday.ASF
:FULLY-SPECIFIED
:DEGREES
482
root 14.5647 23.5527 48.7263 180.578 -13.4139 -169.816
lowerback 26.1365 -4.9931 -4.77624
upperback 3.23062 -8.26235 6.81774
thorax -9.05464 -4.12272 13.3505
lowerneck 6.63635 -2.54973 -22.4811
upperneck -31.9898 0.644571 18.1741
head -11.2472 2.24461 10.8744
rclavicle -2.93207e-014 1.35174e-014
rhumerus 67.119 -3.31891 -45.7853
rradius 90.1024
rwrist -6.6303
rhand -38.7357 -17.1529
rfingers 7.12502
rthumb -11.7488 -46.8034
lclavicle -2.93207e-014 1.35174e-014
lhumerus 11.4715 -0.764912 79.387
lradius 48.6337
lwrist -34.2672
lhand -30.5554 -13.7964
lfingers 7.12502
lthumb -3.85382 16.1485
rfemur -8.93557 -2.43854 36.9799
rtibia 15.6659
rfoot 19.1783 -7.80135
rtoes 59.3192
lfemur -71.4058 19.0913 -13.8055
ltibia 100.548
lfoot -15.6116 -24.3306
ltoes 5.68485
483
root 14.5377 23.57 48.6929 180.698 -13.0625 -169.719
lowerback 25.8031 -4.85579 -4.5715
upperback 3.20057 -8.00498 6.82677
thorax -9.00686 -4.005 13.1157
lowerneck 6.81095 -2.48369 -22.1429
upperneck -31.8525 0.615401 17.8791
head -11.2312 2.18514 10.6771
rclavicle 1.02473e-013 -4.41302e-014
rhumerus 68.9386 -4.9345 -46.369
rradius 87.9121
rwrist -5.14224
rhand -39.48 -17.2062
rfingers 7.12502
rthumb -12.4665 -46.8144
lclavicle 1.02473e-013 -4.41302e-014
lhumerus 11.1285 -1.39101 79.398
lradius 48.845
lwrist -33.9565
lhand -30.3969 -13.3709
lfingers 7.12502
lthumb -3.70072 16.5767
rfemur -8.72441 -2.36488 36.9994
rtibia 15.3465
rfoot 19.389 -7.392
rtoes 59.3858
lfemur -70.6426 18.8494 -13.5955
ltibia 99.7175
lfoot -15.8133 -23.7377
ltoes 4.23407
484
root 14.5069 23.5897 48.671 180.599 -13.2732 -169.745
lowerback 26.0167 -4.90649 -4.26947
upperback 3.12597 -7.98288 6.79401
thorax -9.25397 -3.9778 12.9407
lowerneck 7.12083 -2.50532 -21.7835
upperneck -31.933 0.480498 17.6146
head -11.2998 2.09097 10.5214
rclavicle 1.10325e-014 1.66979e-014
rhumerus 70.7299 -6.26938 -46.665
rradius 85.6837
rwrist -5.12256
rhand -42.2509 -16.746
rfingers 7.12502
rthumb -15.1368 -46.1725
lclavicle 1.10325e-014 1.66979e-014
lhumerus 10.8789 -1.94428 79.4517
lradius 48.9072
lwrist -33.8678
lhand -30.5729 -12.9631
lfingers 7.12502
lthumb -3.87072 16.9815
rfemur -8.32246 -2.89538 36.8361
rtibia 14.7956
rfoot 19.6841 -6.89344
rtoes 59.4092
lfemur -69.6192 17.6609 -13.4761
ltibia 98.8212
lfoot -15.6317 -23.0567
ltoes 5.42185
485
root 14.4795 23.5985 48.6363 181.111 -12.8517 -169.903
lowerback 25.2252 -4.82728 -4.27038
upperback 3.06779 -7.83315 6.73819
thorax -8.95378 -3.91479 12.7027
lowerneck 7.08986 -2.53948 -21.6481
upperneck -31.6667 0.365656 17.5596
head -11.161 1.98977 10.4555
rclavicle -8.05078e-015 1.43125e-014
rhumerus 72.7277 -7.50283 -47.5053
rradius 83.3249
rwrist -3.44514
rhand -42.6029 -16.8488
rfingers 7.12502
rthumb -15.4759 -46.2494
lclavicle -8.05078e-015 1.43125e-014
lhumerus 10.5657 -2.2518 79.4956
lradius 48.966
lwrist -34.0385
lhand -31.0699 -12.7881
lfingers 7.12502
lthumb -4.35065 17.1472
rfemur -8.31165 -2.93039 36.6398
rtibia 14.1132
rfoot 19.8442 -6.20065
rtoes 59.3714
lfemur -69.2497 17.5422 -13.7346
ltibia 98.0832
lfoot -15.6958 -22.9434
ltoes 8.87836
486
root 14.4497 23.6162 48.6018 181.375 -12.8637 -170.033
lowerback 24.6724 -4.99143 -4.18202
upperback 3.08326 -8.00806 6.67489
thorax -8.63013 -4.02309 12.5251
lowerneck 6.60304 -2.50303 -21.5861
upperneck -30.8811 0.373886 17.5777
head -10.7594 1.91099 10.3668
rclavicle -2.127e-014 -4.09496e-014
rhumerus 74.7291 -8.40597 -48.0001
rradius 81.1454
rwrist -3.26542
rhand -44.3436 -17.0938
rfingers 7.12502
rthumb -17.152 -46.3567
lclavicle -2.127e-014 -4.09496e-014
lhumerus 10.134 -2.29754 79.3686
lradius 49.2235
lwrist -34.0069
lhand -31.2937 -12.694
lfingers 7.12502
lthumb -4.56674 17.2368
rfemur -8.00536 -3.25638 36.4347
rtibia 13.2277
rfoot 20.1962 -5.75242
rtoes 59.3842
lfemur -68.6894 17.1415 -14.0085
ltibia 97.3579
lfoot -16.3864 -23.126
ltoes 12.0166
